<svg width="524" height="504" viewBox="0 0 524 504" fill="none" xmlns="http://www.w3.org/2000/svg">
<path d="M49 0H472L486 4L498 10L510 21L517 31L521 39L524 53V458L522 466L517 478L510 487L501 495L489 501L479 504H47L36 502L22 495L12 486L5 476L1 464L0 459V44L4 32L11 21L21 11L33 4L49 0Z" fill="#D64858"/>
<path d="M240 159H289L309 162L321 165L335 170L347 177L358 186L368 199L374 211L378 226V255L374 275L369 291L360 316L348 343L340 360L339 361L330 360L321 357L308 354L300 355L297 358V366L298 370L308 373L329 379L330 381L320 400L310 414L299 426L290 434L276 441L268 443H258L248 440L239 435L228 426L217 412L208 397L199 379V377L212 372L234 365L237 360L236 353L232 349H224L194 358L189 359L181 343L172 322L171 315L180 312L198 308L202 306L204 302V295L200 291H189L170 296H164L160 286L157 276L152 253V229L156 212L163 198L172 187L180 180L193 172L209 165L230 160L240 159Z" fill="#FDFDFD"/>
<path d="M260 40L273 41L285 46L295 55L300 64L303 72L305 89L318 80L328 76H344L357 81L366 89L370 97L371 100V117L363 134L352 146L342 155L335 154L323 150L324 144L339 129L346 118L348 112V104L344 100L341 99H329L319 104L306 116L296 128L289 138L278 137L279 126L282 113L283 104V91L282 80L278 70L271 64L268 63H259L253 67L249 72L246 80L245 87V103L249 126L251 132V136L243 138L238 137L231 127L219 113L208 104L198 99H187L181 103L179 106V114L185 125L200 141L205 146L204 151L190 156L186 155L176 146L171 141L164 133L159 123L156 113V103L160 93L167 85L176 79L182 77H200L213 82L224 90V77L228 64L234 54L243 46L251 42L260 40Z" fill="#FDFBFB"/>
<path d="M240 263H247L252 268L260 273L269 272L275 268L280 263H288L291 266V273L285 280L276 286L270 288H257L245 282L238 275L237 273V266L240 263Z" fill="#D44657"/>
<path d="M311 236H319L324 239L327 244V261L324 267L318 271H312L307 268L304 263L303 259V245L307 239L311 236Z" fill="#D34657"/>
<path d="M209 236H217L223 241L225 245V260L221 268L215 271L208 270L203 266L201 261V244L207 237L209 236Z" fill="#D34555"/>
</svg>
