
<svg width="56" height="72" viewBox="0 0 56 72" fill="none" xmlns="http://www.w3.org/2000/svg">
<path fill-rule="evenodd" clip-rule="evenodd" d="M13.7735 30.27L16.1016 65.407C16.2071 66.9734 15.7618 68.364 14.793 69.5125C13.8242 70.6609 12.5977 71.2508 11.1758 71.2508H9.9688C8.5469 71.2508 7.3204 70.661 6.3516 69.5125C5.38285 68.3641 4.9414 66.9734 5.043 65.407L7.3711 30.27C3.0977 28.2817 0 22.4184 0 15.497C0 6.9384 4.7344 0.0010004 10.574 0.0010004C16.4138 0.0010004 21.148 6.9385 21.148 15.497C21.1441 22.4189 18.0469 28.278 13.7735 30.27ZM40.7535 28.8286H43.9332L41.5113 65.4066C41.4058 66.973 41.8511 68.3636 42.8199 69.5121C43.7886 70.6605 45.0152 71.2504 46.4371 71.2504H47.6441C49.066 71.2504 50.2925 70.6606 51.2613 69.5121C52.2301 68.3637 52.6715 66.973 52.5699 65.4066L50.148 28.8286H53.0074C54.6558 28.8286 56.0035 27.4809 56.0035 25.8325V18.438L56.0074 2C56.0074 0.8945 55.1129 0 54.0074 0C52.9019 0 52.0074 0.89453 52.0074 2V18.352H48.8824V2C48.8824 0.8945 47.9879 0 46.8824 0C45.7769 0 44.8824 0.89453 44.8824 2V18.352H41.7574V2C41.7574 0.8945 40.8629 0 39.7574 0C38.6519 0 37.7574 0.89453 37.7574 2V25.832C37.7574 27.4804 39.1051 28.8286 40.7535 28.8286Z" fill="#BF3143"/>
</svg>
