<svg xmlns="http://www.w3.org/2000/svg" viewBox="0 0 512 512">
  <!-- Background rounded square -->
  <rect width="512" height="512" rx="80" fill="#BF3143"/>

  <!-- Carrot body (white) -->
  <path d="M 256 200 Q 220 200 200 240 Q 190 280 195 320 Q 200 360 220 390 Q 235 410 256 410 Q 277 410 292 390 Q 312 360 317 320 Q 322 280 312 240 Q 292 200 256 200 Z" fill="white"/>

  <!-- Carrot stripes (left side) -->
  <path d="M 210 280 Q 205 280 205 285 Q 205 290 210 290 L 225 290 Q 230 290 230 285 Q 230 280 225 280 Z" fill="#BF3143"/>
  <path d="M 210 320 Q 205 320 205 325 Q 205 330 210 330 L 225 330 Q 230 330 230 325 Q 230 320 225 320 Z" fill="#BF3143"/>
  <path d="M 215 360 Q 210 360 210 365 Q 210 370 215 370 L 230 370 Q 235 370 235 365 Q 235 360 230 360 Z" fill="#BF3143"/>

  <!-- Carrot stripes (right side) -->
  <path d="M 287 280 Q 282 280 282 285 Q 282 290 287 290 L 302 290 Q 307 290 307 285 Q 307 280 302 280 Z" fill="#BF3143"/>
  <path d="M 287 320 Q 282 320 282 325 Q 282 330 287 330 L 302 330 Q 307 330 307 325 Q 307 320 302 320 Z" fill="#BF3143"/>
  <path d="M 282 360 Q 277 360 277 365 Q 277 370 282 370 L 297 370 Q 302 370 302 365 Q 302 360 297 360 Z" fill="#BF3143"/>

  <!-- Carrot greens (three leaves) -->
  <path d="M 230 160 Q 220 150 220 135 Q 220 115 235 110 Q 245 108 250 120 Q 253 130 250 145 Q 248 160 240 175 Z" fill="white"/>
  <path d="M 256 150 Q 256 135 256 115 Q 256 95 271 90 Q 281 88 286 100 Q 289 110 286 125 Q 284 140 276 155 Z" fill="white"/>
  <path d="M 282 160 Q 292 150 292 135 Q 292 115 277 110 Q 267 108 262 120 Q 259 130 262 145 Q 264 160 272 175 Z" fill="white"/>

  <!-- Face - left cheek -->
  <ellipse cx="235" cy="290" rx="8" ry="12" fill="#BF3143"/>

  <!-- Face - right cheek -->
  <ellipse cx="277" cy="290" rx="8" ry="12" fill="#BF3143"/>

  <!-- Face - smile -->
  <path d="M 240 305 Q 256 315 272 305" stroke="#BF3143" stroke-width="6" stroke-linecap="round" fill="none"/>
</svg>
