<svg width="512" height="512" viewBox="0 0 512 512" fill="none" xmlns="http://www.w3.org/2000/svg">
  <rect width="512" height="512" rx="80" fill="#BF3143"/>
  
  <path d="M256 120C240 120 226 130 222 145C215 135 200 130 190 135C175 142 175 165 195 175C205 180 220 180 230 175L256 200L282 175C292 180 307 180 317 175C337 165 337 142 322 135C312 130 297 135 290 145C286 130 272 120 256 120Z" fill="white"/>
  
  <path d="M256 430C230 430 190 350 180 280C175 240 190 190 256 190C322 190 337 240 332 280C322 350 282 430 256 430Z" fill="white"/>
  
  <circle cx="225" cy="265" r="10" fill="#BF3143"/>
  <circle cx="287" cy="265" r="10" fill="#BF3143"/>
  <path d="M241 280C241 280 246 292 256 292C266 292 271 280 271 280" stroke="#BF3143" stroke-width="8" stroke-linecap="round"/>
  
  <path d="M195 320L215 315" stroke="#BF3143" stroke-width="12" stroke-linecap="round"/>
  <path d="M205 370L235 360" stroke="#BF3143" stroke-width="12" stroke-linecap="round"/>
  <path d="M310 375L290 380" stroke="#BF3143" stroke-width="12" stroke-linecap="round"/>
</svg>